<svg
              xmlns="http://www.w3.org/2000/svg"
              width="81"
              height="81"
              viewBox="0 0 81 81"
              fill="none"
              id="account-icon"
            >
              <path
                d="M65.4271 68.5206C62.5157 64.6659 58.7489 61.5398 54.4237 59.3887C50.0984 57.2376 45.3327 56.1202 40.5021 56.1246C35.6714 56.1202 30.9058 57.2376 26.5805 59.3887C22.2552 61.5398 18.4885 64.6659 15.5771 68.5206M65.4271 68.5206C71.1083 63.4672 75.1151 56.8061 76.9237 49.4207C78.7323 42.0353 78.2532 34.2746 75.5498 27.1678C72.8465 20.061 68.0468 13.9438 61.7871 9.62761C55.5274 5.31138 48.1035 3 40.5 3C32.8965 3 25.4726 5.31138 19.2129 9.62761C12.9532 13.9438 8.15346 20.061 5.45015 27.1678C2.74684 34.2746 2.26772 42.0353 4.07633 49.4207C5.88495 56.8061 9.89584 63.4672 15.5771 68.5206M65.4271 68.5206C58.5688 74.6382 49.6922 78.013 40.5021 77.9999C31.3105 78.0141 22.4364 74.6391 15.5771 68.5206M53.0021 31.1242C53.0021 34.4395 51.6851 37.6189 49.3409 39.9632C46.9967 42.3074 43.8173 43.6244 40.5021 43.6244C37.1869 43.6244 34.0075 42.3074 31.6632 39.9632C29.319 37.6189 28.0021 34.4395 28.0021 31.1242C28.0021 27.809 29.319 24.6295 31.6632 22.2852C34.0075 19.941 37.1869 18.624 40.5021 18.624C43.8173 18.624 46.9967 19.941 49.3409 22.2852C51.6851 24.6295 53.0021 27.809 53.0021 31.1242Z"
                stroke="white"
                stroke-width="5"
                stroke-linecap="round"
                stroke-linejoin="round"
              />
            </svg>