<svg
              xmlns="http://www.w3.org/2000/svg"
              width="145"
              height="150"
              viewBox="0 0 145 150"
              fill="none"
              id="logo"
            >
              <path
                d="M52.9996 2.91993C58.0929 1.09855 63.3405 0.152263 68.7424 0.0810689C70.3636 0.0603039 71.1853 0.0491778 71.2075 0.0476946C74.3519 -0.0249828 76.3869 -0.0146004 77.3124 0.0788419C78.5909 0.207881 79.8702 0.337662 81.1502 0.468185C85.1015 0.874585 88.9215 1.80975 92.6102 3.27368C94.5191 4.03012 96.1581 5.01794 97.5271 6.23714C99.5294 8.02144 100.063 11.0427 98.308 13.3076C96.8196 15.2321 95.1087 16.1376 92.6948 17.1054C85.6199 19.9353 77.5438 20.3692 70.1351 20.2846C65.4779 20.2327 60.8792 19.6491 56.339 18.5337C53.9199 17.9404 51.5631 16.9726 49.2686 15.6303C46.3919 13.9484 44.236 10.4754 46.4386 7.33175C47.9515 5.16922 50.5768 3.78539 52.9996 2.91993ZM89.075 6.98913C86.8235 6.19932 84.4963 5.75435 82.0668 5.33831C77.9331 4.63305 74.0708 4.61747 69.6902 4.72426C64.1741 4.85923 59.0066 5.82629 54.1876 7.62542C53.3133 7.95247 50.1741 9.13385 50.6658 10.4554C51.0751 11.5545 53.6693 12.7158 54.7238 13.074C56.7959 13.7785 58.9124 14.3073 61.0735 14.6603C68.2774 15.835 75.488 15.8862 82.7054 14.8138C85.8112 14.354 88.8266 13.5516 91.7515 12.4066C92.6926 12.0372 93.845 11.3831 94.3033 10.4376C94.336 10.3723 94.3449 10.3041 94.33 10.2329C93.9718 8.5821 90.6413 7.53866 89.075 6.98913Z"
                fill="white"
              />
              <mask id="path-2-inside-1_4_408" fill="white">
                <path d="M33.6304 84.2847C33.6199 84.2596 33.6024 84.2382 33.5802 84.2232C33.5581 84.2082 33.5322 84.2002 33.5058 84.2002C32.0018 84.1928 30.523 84.0244 29.0695 83.6952C24.9469 82.7585 21.3605 80.8363 18.6106 77.5613C16.3977 74.9286 15.1592 71.8955 14.8952 68.4618C14.8848 68.3284 14.8218 68.2275 14.7061 68.1593C9.91826 65.3404 5.92471 59.7472 5.61324 54.2008C5.57616 53.5645 5.55836 52.7398 5.55984 51.7268C5.56207 50.6967 4.63432 49.6599 3.96243 48.701C3.27867 47.7221 2.55486 46.3902 1.791 44.7052C0.835814 42.5931 0.269227 40.4002 0.0912414 38.1265C0.0586107 37.7052 0.030432 36.222 0.00670065 33.6768C-0.0170307 31.2977 0.0222741 29.5928 0.124616 28.562C0.347097 26.326 3.13924 25.6052 4.46301 27.4629C5.80235 29.3407 7.11944 31.432 8.56112 33.045C10.8557 35.6109 13.4327 37.8513 16.2924 39.7661C22.2971 43.7908 29.5234 45.4772 36.5916 46.3271C36.6513 46.3337 36.7115 46.3239 36.7657 46.2988C36.8199 46.2737 36.8659 46.2342 36.8986 46.1847C39.2992 42.5472 42.2271 39.161 45.6511 36.4512C51.0826 32.1528 57.1786 29.2079 63.9391 27.6164C67.2451 26.8377 70.4555 26.8667 73.8417 26.8934C76.4025 26.9112 78.5339 27.0357 81.0123 27.583C88.4358 29.219 94.9864 32.534 100.664 37.528C103.565 40.0776 106.126 43.1634 108.36 46.3383C108.399 46.3932 108.454 46.4348 108.517 46.4574C108.58 46.4801 108.649 46.4828 108.714 46.4651C109.127 46.3561 109.563 46.1914 109.988 46.1314C112.95 45.7086 115.623 45.1725 118.007 44.5228C127.473 41.9465 134.984 36.1842 140.201 27.9546C141.296 26.2281 143.539 25.6564 144.649 27.7722C144.834 28.1237 144.924 28.8126 144.918 29.839C144.899 33.7591 144.862 36.5031 144.809 38.0708C144.649 42.7118 142.384 47.4551 139.409 51.0148C139.339 51.0995 139.301 51.2052 139.303 51.3129C139.358 54.5434 139.098 57.4 137.56 60.3057C136.255 62.7722 134.528 64.8992 132.379 66.6864C131.654 67.2886 130.932 67.8582 130.214 68.3951C130.169 68.4283 130.132 68.4714 130.107 68.5212C130.081 68.5709 130.067 68.6259 130.065 68.6821C129.912 73.4855 127.046 77.8995 123.248 80.5337C120.004 82.783 115.573 83.9555 111.652 84.2959C111.575 84.3025 111.501 84.3304 111.438 84.3763C111.375 84.4222 111.326 84.4844 111.297 84.5562C105.14 99.4179 92.0674 108.437 76.2467 110.166C75.2812 110.271 74.122 110.314 72.7694 110.295C71.212 110.271 69.5856 110.308 68.1239 110.159C58.3281 109.149 49.1841 104.571 42.3494 97.6804C38.565 93.8648 35.6416 89.2661 33.6304 84.2847ZM64.8379 87.3617C65.6655 87.3083 66.1883 88.0447 66.1972 88.8278C66.2076 89.8409 66.2113 90.8546 66.2084 91.8691C66.2084 91.9211 66.2291 91.9618 66.2707 91.9915L66.3307 92.0338C66.341 92.0412 66.3529 92.0458 66.3655 92.0472C66.378 92.0487 66.3907 92.0468 66.4024 92.0419C66.414 92.037 66.4242 92.0291 66.4319 92.0192C66.4396 92.0092 66.4446 91.9973 66.4464 91.9848C66.5176 91.5443 66.5532 91.0007 66.5532 90.354C66.5577 81.7944 66.5554 73.2341 66.5465 64.673C66.5465 63.5183 67.3163 63.5339 68.2107 63.5405C68.2893 63.5405 68.3286 63.5012 68.3286 63.4226C68.3331 61.4781 68.3368 59.5351 68.3397 57.5936C68.342 56.1831 69.441 56.3077 70.4466 56.4211C70.4746 56.4243 70.5028 56.4215 70.5296 56.4129C70.5564 56.4044 70.581 56.3904 70.602 56.3717C70.623 56.353 70.6398 56.3302 70.6514 56.3046C70.6629 56.279 70.669 56.2512 70.6691 56.2231C70.678 53.0045 70.678 49.7875 70.6691 46.5719C70.6669 45.7643 70.7648 45.2414 71.39 44.7764C72.2821 44.1134 73.6237 44.3871 74.1487 45.3816C74.3208 45.7079 74.412 46.227 74.4224 46.939C74.4639 50.0018 74.4869 53.0676 74.4914 56.1364C74.4914 56.215 74.5307 56.2558 74.6093 56.2587C75.8196 56.2899 76.7651 56.0763 76.7696 57.7115C76.7755 59.6308 76.7844 61.5686 76.7963 63.525C76.7962 63.5428 76.8003 63.5604 76.8084 63.5764C76.8164 63.5924 76.8281 63.6063 76.8425 63.617C76.8569 63.6278 76.8737 63.6351 76.8916 63.6385C76.9094 63.6418 76.9278 63.641 76.9453 63.6362C78.1556 63.2914 78.6028 64.0011 78.6006 65.1157C78.5813 73.9186 78.5717 82.737 78.5717 91.571C78.5717 91.8943 78.6814 91.9381 78.9009 91.7023C78.9113 91.6919 78.9202 91.5933 78.9276 91.4064C78.9751 90.2777 79.0048 89.2439 79.0166 88.305C79.0201 88.0675 79.1168 87.841 79.2857 87.6741C79.4547 87.5072 79.6824 87.4134 79.9199 87.4128L83.7399 87.4039C83.8096 87.4039 83.8445 87.3683 83.8445 87.2971C83.8564 83.0789 83.8526 78.8614 83.8334 74.6446C83.8289 73.5722 84.4608 73.223 85.482 73.2252C86.9563 73.2311 88.4313 73.2178 89.9071 73.1851C90.9506 73.1607 91.8227 73.2875 91.8383 74.5022C91.8753 77.5843 91.8731 80.6813 91.8316 83.7931C91.831 83.827 91.8372 83.8608 91.8499 83.8923C91.8627 83.9239 91.8816 83.9526 91.9056 83.9768C91.9296 84.0011 91.9583 84.0203 91.9899 84.0334C92.0215 84.0466 92.0554 84.0534 92.0897 84.0534L96.4659 84.0489C96.5839 84.0486 96.7009 84.0716 96.81 84.1165C96.9192 84.1614 97.0184 84.2273 97.1021 84.3106C97.1858 84.3939 97.2522 84.4928 97.2977 84.6017C97.3431 84.7107 97.3666 84.8275 97.3669 84.9455L97.3892 95.5868C97.3893 95.6013 97.3936 95.6154 97.4015 95.6276C97.4095 95.6397 97.4207 95.6492 97.4338 95.6549C97.4469 95.6606 97.4613 95.6623 97.4751 95.6596C97.4889 95.657 97.5016 95.6503 97.5116 95.6402C102.827 90.5031 106.756 84.3448 108.551 77.1742C109.379 73.8681 109.397 70.2951 109.312 66.7732C109.143 59.7005 106.856 52.9615 102.651 47.2705C93.9452 35.4789 78.961 29.1938 64.4352 32.6111C58.2546 34.0647 52.769 36.9213 47.9782 41.1811C43.0821 45.5373 39.5662 50.8131 37.4304 57.0085C36.4722 59.7865 35.8989 62.968 35.7106 66.5529C35.3383 73.6115 36.7622 80.0657 39.9822 85.9155C41.9512 89.493 44.2783 92.6834 47.3352 95.3955C47.3536 95.4119 47.3762 95.4226 47.4005 95.4263C47.4248 95.43 47.4497 95.4266 47.4721 95.4165C47.4945 95.4064 47.5134 95.3899 47.5267 95.3692C47.5399 95.3485 47.5468 95.3244 47.5466 95.2998L47.5866 85.0701C47.5872 84.8048 47.6931 84.5504 47.8812 84.3628C48.0692 84.1752 48.3241 84.0695 48.59 84.0689L53.053 84.0645C53.0914 84.0645 53.1282 84.0492 53.1553 84.0221C53.1824 83.995 53.1976 83.9582 53.1976 83.9199C53.2095 80.9594 53.2147 77.9989 53.2132 75.0384C53.2132 74.0817 53.3734 73.2074 54.4858 73.2207C56.2538 73.24 58.0233 73.2274 59.7942 73.1829C60.8799 73.1562 61.2248 73.7525 61.227 74.7914C61.2359 78.9459 61.2381 83.1041 61.2337 87.266C61.2337 87.3416 61.2715 87.3817 61.3471 87.3861C62.5189 87.441 63.6825 87.4329 64.8379 87.3617ZM32.271 56.3544C32.9362 54.5478 33.6482 52.8748 34.4691 51.1216C34.4763 51.1061 34.4798 51.089 34.4794 51.0719C34.4789 51.0548 34.4745 51.0381 34.4665 51.0232C34.4585 51.0082 34.4471 50.9954 34.4332 50.9859C34.4194 50.9763 34.4035 50.9702 34.3868 50.9681C29.5842 50.3096 25.3689 49.3225 21.7409 48.0069C16.6787 46.1736 12.0222 43.291 7.77131 39.359C6.7034 38.3712 5.75118 37.1765 4.81898 36.0262C4.81026 36.0161 4.79859 36.0088 4.78559 36.0056C4.77259 36.0024 4.7589 36.0032 4.74643 36.0081C4.73395 36.013 4.72331 36.0217 4.71598 36.0329C4.70865 36.0441 4.70499 36.0573 4.70551 36.0707C5.06297 41.6876 7.36046 46.3027 11.598 49.9158C13.2889 51.356 14.6134 52.3334 15.5715 52.8481C20.6753 55.592 26.1112 56.855 31.8794 56.6369C31.9653 56.6336 32.0482 56.6051 32.1179 56.5548C32.1876 56.5045 32.2408 56.4348 32.271 56.3544ZM124.721 47.4084C120.249 49.1452 115.594 50.3014 110.756 50.8769C110.738 50.8792 110.721 50.8854 110.706 50.8951C110.692 50.9047 110.679 50.9176 110.67 50.9327C110.66 50.9478 110.654 50.9648 110.652 50.9825C110.65 51.0001 110.652 51.018 110.658 51.0348C111.301 52.8926 112.089 54.6324 112.643 56.5524C112.663 56.6251 112.712 56.6629 112.789 56.6659C118.44 56.8112 123.73 55.6187 128.657 53.0884C133.433 50.6344 137.781 46.365 139.376 41.1878C139.781 39.8707 140.107 38.274 140.355 36.3978C140.357 36.3817 140.354 36.3654 140.347 36.351C140.339 36.3366 140.327 36.3249 140.313 36.3176C140.299 36.3102 140.282 36.3076 140.266 36.31C140.25 36.3124 140.235 36.3198 140.224 36.331C139.583 36.9562 138.973 37.815 138.464 38.3111C134.546 42.1356 129.836 45.4239 124.721 47.4084ZM25.4074 61.2089C20.2236 60.4881 15.1755 58.6237 10.9016 55.569C10.8186 55.5097 10.7919 55.529 10.8215 55.6269C10.8735 55.8034 10.9676 56.0503 11.1041 56.3677C12.2462 59.0138 13.854 61.2253 15.9275 63.0021C20.059 66.5418 25.1783 67.9279 30.5824 67.5853C30.6699 67.5808 30.7144 67.5341 30.7159 67.4451C30.7381 65.4917 30.8931 63.548 31.1808 61.6139C31.1927 61.5352 31.1586 61.4945 31.0785 61.4915C29.1852 61.4092 27.1228 61.447 25.4074 61.2089ZM134.019 55.6335C128.396 59.5737 120.837 61.4158 114.004 61.4915C113.887 61.493 113.839 61.5516 113.86 61.6672C114.19 63.591 114.35 65.528 114.34 67.4785C114.34 67.5586 114.381 67.6008 114.462 67.6053C119.112 67.8352 123.271 66.7888 126.939 64.4661C129.355 62.9369 131.381 60.8137 133.015 58.0964C133.449 57.3711 133.734 56.5012 134.101 55.7003C134.105 55.6893 134.106 55.6772 134.103 55.6658C134.1 55.6544 134.093 55.6443 134.084 55.6368C134.075 55.6294 134.064 55.6251 134.052 55.6245C134.04 55.6239 134.028 55.6271 134.019 55.6335ZM113.346 79.3612C118.078 78.4424 122.714 75.7125 124.588 71.0827C124.597 71.061 124.599 71.0371 124.594 71.014C124.59 70.991 124.578 70.9699 124.561 70.9534C124.545 70.9369 124.523 70.9258 124.5 70.9215C124.477 70.9171 124.453 70.9198 124.432 70.9292C122.508 71.7256 120.501 72.2381 118.409 72.4665C117.217 72.5978 115.684 72.5533 114.32 72.6111C114.243 72.6141 114.202 72.6541 114.198 72.7313C114.055 74.9294 113.733 77.0986 113.23 79.2389C113.206 79.3397 113.245 79.3805 113.346 79.3612ZM20.4706 71.3118C22.4329 75.4188 27.0449 78.6738 31.5413 79.2211C31.7089 79.2418 31.7734 79.1699 31.7348 79.0052C31.2543 76.9362 30.9472 74.8434 30.8137 72.7268C30.8115 72.6942 30.7969 72.6636 30.7729 72.6413C30.749 72.619 30.7174 72.6066 30.6847 72.6067C28.3279 72.6082 25.9889 72.422 23.6676 72.0482C22.6464 71.8836 21.6453 71.4498 20.6619 71.1005C20.6331 71.0898 20.6018 71.088 20.572 71.0953C20.5422 71.1026 20.5153 71.1186 20.4947 71.1414C20.4741 71.1641 20.4608 71.1925 20.4565 71.2229C20.4522 71.2533 20.4571 71.2843 20.4706 71.3118Z" />
              </mask>
              <path
                d="M33.6304 84.2847C33.6199 84.2596 33.6024 84.2382 33.5802 84.2232C33.5581 84.2082 33.5322 84.2002 33.5058 84.2002C32.0018 84.1928 30.523 84.0244 29.0695 83.6952C24.9469 82.7585 21.3605 80.8363 18.6106 77.5613C16.3977 74.9286 15.1592 71.8955 14.8952 68.4618C14.8848 68.3284 14.8218 68.2275 14.7061 68.1593C9.91826 65.3404 5.92471 59.7472 5.61324 54.2008C5.57616 53.5645 5.55836 52.7398 5.55984 51.7268C5.56207 50.6967 4.63432 49.6599 3.96243 48.701C3.27867 47.7221 2.55486 46.3902 1.791 44.7052C0.835814 42.5931 0.269227 40.4002 0.0912414 38.1265C0.0586107 37.7052 0.030432 36.222 0.00670065 33.6768C-0.0170307 31.2977 0.0222741 29.5928 0.124616 28.562C0.347097 26.326 3.13924 25.6052 4.46301 27.4629C5.80235 29.3407 7.11944 31.432 8.56112 33.045C10.8557 35.6109 13.4327 37.8513 16.2924 39.7661C22.2971 43.7908 29.5234 45.4772 36.5916 46.3271C36.6513 46.3337 36.7115 46.3239 36.7657 46.2988C36.8199 46.2737 36.8659 46.2342 36.8986 46.1847C39.2992 42.5472 42.2271 39.161 45.6511 36.4512C51.0826 32.1528 57.1786 29.2079 63.9391 27.6164C67.2451 26.8377 70.4555 26.8667 73.8417 26.8934C76.4025 26.9112 78.5339 27.0357 81.0123 27.583C88.4358 29.219 94.9864 32.534 100.664 37.528C103.565 40.0776 106.126 43.1634 108.36 46.3383C108.399 46.3932 108.454 46.4348 108.517 46.4574C108.58 46.4801 108.649 46.4828 108.714 46.4651C109.127 46.3561 109.563 46.1914 109.988 46.1314C112.95 45.7086 115.623 45.1725 118.007 44.5228C127.473 41.9465 134.984 36.1842 140.201 27.9546C141.296 26.2281 143.539 25.6564 144.649 27.7722C144.834 28.1237 144.924 28.8126 144.918 29.839C144.899 33.7591 144.862 36.5031 144.809 38.0708C144.649 42.7118 142.384 47.4551 139.409 51.0148C139.339 51.0995 139.301 51.2052 139.303 51.3129C139.358 54.5434 139.098 57.4 137.56 60.3057C136.255 62.7722 134.528 64.8992 132.379 66.6864C131.654 67.2886 130.932 67.8582 130.214 68.3951C130.169 68.4283 130.132 68.4714 130.107 68.5212C130.081 68.5709 130.067 68.6259 130.065 68.6821C129.912 73.4855 127.046 77.8995 123.248 80.5337C120.004 82.783 115.573 83.9555 111.652 84.2959C111.575 84.3025 111.501 84.3304 111.438 84.3763C111.375 84.4222 111.326 84.4844 111.297 84.5562C105.14 99.4179 92.0674 108.437 76.2467 110.166C75.2812 110.271 74.122 110.314 72.7694 110.295C71.212 110.271 69.5856 110.308 68.1239 110.159C58.3281 109.149 49.1841 104.571 42.3494 97.6804C38.565 93.8648 35.6416 89.2661 33.6304 84.2847ZM64.8379 87.3617C65.6655 87.3083 66.1883 88.0447 66.1972 88.8278C66.2076 89.8409 66.2113 90.8546 66.2084 91.8691C66.2084 91.9211 66.2291 91.9618 66.2707 91.9915L66.3307 92.0338C66.341 92.0412 66.3529 92.0458 66.3655 92.0472C66.378 92.0487 66.3907 92.0468 66.4024 92.0419C66.414 92.037 66.4242 92.0291 66.4319 92.0192C66.4396 92.0092 66.4446 91.9973 66.4464 91.9848C66.5176 91.5443 66.5532 91.0007 66.5532 90.354C66.5577 81.7944 66.5554 73.2341 66.5465 64.673C66.5465 63.5183 67.3163 63.5339 68.2107 63.5405C68.2893 63.5405 68.3286 63.5012 68.3286 63.4226C68.3331 61.4781 68.3368 59.5351 68.3397 57.5936C68.342 56.1831 69.441 56.3077 70.4466 56.4211C70.4746 56.4243 70.5028 56.4215 70.5296 56.4129C70.5564 56.4044 70.581 56.3904 70.602 56.3717C70.623 56.353 70.6398 56.3302 70.6514 56.3046C70.6629 56.279 70.669 56.2512 70.6691 56.2231C70.678 53.0045 70.678 49.7875 70.6691 46.5719C70.6669 45.7643 70.7648 45.2414 71.39 44.7764C72.2821 44.1134 73.6237 44.3871 74.1487 45.3816C74.3208 45.7079 74.412 46.227 74.4224 46.939C74.4639 50.0018 74.4869 53.0676 74.4914 56.1364C74.4914 56.215 74.5307 56.2558 74.6093 56.2587C75.8196 56.2899 76.7651 56.0763 76.7696 57.7115C76.7755 59.6308 76.7844 61.5686 76.7963 63.525C76.7962 63.5428 76.8003 63.5604 76.8084 63.5764C76.8164 63.5924 76.8281 63.6063 76.8425 63.617C76.8569 63.6278 76.8737 63.6351 76.8916 63.6385C76.9094 63.6418 76.9278 63.641 76.9453 63.6362C78.1556 63.2914 78.6028 64.0011 78.6006 65.1157C78.5813 73.9186 78.5717 82.737 78.5717 91.571C78.5717 91.8943 78.6814 91.9381 78.9009 91.7023C78.9113 91.6919 78.9202 91.5933 78.9276 91.4064C78.9751 90.2777 79.0048 89.2439 79.0166 88.305C79.0201 88.0675 79.1168 87.841 79.2857 87.6741C79.4547 87.5072 79.6824 87.4134 79.9199 87.4128L83.7399 87.4039C83.8096 87.4039 83.8445 87.3683 83.8445 87.2971C83.8564 83.0789 83.8526 78.8614 83.8334 74.6446C83.8289 73.5722 84.4608 73.223 85.482 73.2252C86.9563 73.2311 88.4313 73.2178 89.9071 73.1851C90.9506 73.1607 91.8227 73.2875 91.8383 74.5022C91.8753 77.5843 91.8731 80.6813 91.8316 83.7931C91.831 83.827 91.8372 83.8608 91.8499 83.8923C91.8627 83.9239 91.8816 83.9526 91.9056 83.9768C91.9296 84.0011 91.9583 84.0203 91.9899 84.0334C92.0215 84.0466 92.0554 84.0534 92.0897 84.0534L96.4659 84.0489C96.5839 84.0486 96.7009 84.0716 96.81 84.1165C96.9192 84.1614 97.0184 84.2273 97.1021 84.3106C97.1858 84.3939 97.2522 84.4928 97.2977 84.6017C97.3431 84.7107 97.3666 84.8275 97.3669 84.9455L97.3892 95.5868C97.3893 95.6013 97.3936 95.6154 97.4015 95.6276C97.4095 95.6397 97.4207 95.6492 97.4338 95.6549C97.4469 95.6606 97.4613 95.6623 97.4751 95.6596C97.4889 95.657 97.5016 95.6503 97.5116 95.6402C102.827 90.5031 106.756 84.3448 108.551 77.1742C109.379 73.8681 109.397 70.2951 109.312 66.7732C109.143 59.7005 106.856 52.9615 102.651 47.2705C93.9452 35.4789 78.961 29.1938 64.4352 32.6111C58.2546 34.0647 52.769 36.9213 47.9782 41.1811C43.0821 45.5373 39.5662 50.8131 37.4304 57.0085C36.4722 59.7865 35.8989 62.968 35.7106 66.5529C35.3383 73.6115 36.7622 80.0657 39.9822 85.9155C41.9512 89.493 44.2783 92.6834 47.3352 95.3955C47.3536 95.4119 47.3762 95.4226 47.4005 95.4263C47.4248 95.43 47.4497 95.4266 47.4721 95.4165C47.4945 95.4064 47.5134 95.3899 47.5267 95.3692C47.5399 95.3485 47.5468 95.3244 47.5466 95.2998L47.5866 85.0701C47.5872 84.8048 47.6931 84.5504 47.8812 84.3628C48.0692 84.1752 48.3241 84.0695 48.59 84.0689L53.053 84.0645C53.0914 84.0645 53.1282 84.0492 53.1553 84.0221C53.1824 83.995 53.1976 83.9582 53.1976 83.9199C53.2095 80.9594 53.2147 77.9989 53.2132 75.0384C53.2132 74.0817 53.3734 73.2074 54.4858 73.2207C56.2538 73.24 58.0233 73.2274 59.7942 73.1829C60.8799 73.1562 61.2248 73.7525 61.227 74.7914C61.2359 78.9459 61.2381 83.1041 61.2337 87.266C61.2337 87.3416 61.2715 87.3817 61.3471 87.3861C62.5189 87.441 63.6825 87.4329 64.8379 87.3617ZM32.271 56.3544C32.9362 54.5478 33.6482 52.8748 34.4691 51.1216C34.4763 51.1061 34.4798 51.089 34.4794 51.0719C34.4789 51.0548 34.4745 51.0381 34.4665 51.0232C34.4585 51.0082 34.4471 50.9954 34.4332 50.9859C34.4194 50.9763 34.4035 50.9702 34.3868 50.9681C29.5842 50.3096 25.3689 49.3225 21.7409 48.0069C16.6787 46.1736 12.0222 43.291 7.77131 39.359C6.7034 38.3712 5.75118 37.1765 4.81898 36.0262C4.81026 36.0161 4.79859 36.0088 4.78559 36.0056C4.77259 36.0024 4.7589 36.0032 4.74643 36.0081C4.73395 36.013 4.72331 36.0217 4.71598 36.0329C4.70865 36.0441 4.70499 36.0573 4.70551 36.0707C5.06297 41.6876 7.36046 46.3027 11.598 49.9158C13.2889 51.356 14.6134 52.3334 15.5715 52.8481C20.6753 55.592 26.1112 56.855 31.8794 56.6369C31.9653 56.6336 32.0482 56.6051 32.1179 56.5548C32.1876 56.5045 32.2408 56.4348 32.271 56.3544ZM124.721 47.4084C120.249 49.1452 115.594 50.3014 110.756 50.8769C110.738 50.8792 110.721 50.8854 110.706 50.8951C110.692 50.9047 110.679 50.9176 110.67 50.9327C110.66 50.9478 110.654 50.9648 110.652 50.9825C110.65 51.0001 110.652 51.018 110.658 51.0348C111.301 52.8926 112.089 54.6324 112.643 56.5524C112.663 56.6251 112.712 56.6629 112.789 56.6659C118.44 56.8112 123.73 55.6187 128.657 53.0884C133.433 50.6344 137.781 46.365 139.376 41.1878C139.781 39.8707 140.107 38.274 140.355 36.3978C140.357 36.3817 140.354 36.3654 140.347 36.351C140.339 36.3366 140.327 36.3249 140.313 36.3176C140.299 36.3102 140.282 36.3076 140.266 36.31C140.25 36.3124 140.235 36.3198 140.224 36.331C139.583 36.9562 138.973 37.815 138.464 38.3111C134.546 42.1356 129.836 45.4239 124.721 47.4084ZM25.4074 61.2089C20.2236 60.4881 15.1755 58.6237 10.9016 55.569C10.8186 55.5097 10.7919 55.529 10.8215 55.6269C10.8735 55.8034 10.9676 56.0503 11.1041 56.3677C12.2462 59.0138 13.854 61.2253 15.9275 63.0021C20.059 66.5418 25.1783 67.9279 30.5824 67.5853C30.6699 67.5808 30.7144 67.5341 30.7159 67.4451C30.7381 65.4917 30.8931 63.548 31.1808 61.6139C31.1927 61.5352 31.1586 61.4945 31.0785 61.4915C29.1852 61.4092 27.1228 61.447 25.4074 61.2089ZM134.019 55.6335C128.396 59.5737 120.837 61.4158 114.004 61.4915C113.887 61.493 113.839 61.5516 113.86 61.6672C114.19 63.591 114.35 65.528 114.34 67.4785C114.34 67.5586 114.381 67.6008 114.462 67.6053C119.112 67.8352 123.271 66.7888 126.939 64.4661C129.355 62.9369 131.381 60.8137 133.015 58.0964C133.449 57.3711 133.734 56.5012 134.101 55.7003C134.105 55.6893 134.106 55.6772 134.103 55.6658C134.1 55.6544 134.093 55.6443 134.084 55.6368C134.075 55.6294 134.064 55.6251 134.052 55.6245C134.04 55.6239 134.028 55.6271 134.019 55.6335ZM113.346 79.3612C118.078 78.4424 122.714 75.7125 124.588 71.0827C124.597 71.061 124.599 71.0371 124.594 71.014C124.59 70.991 124.578 70.9699 124.561 70.9534C124.545 70.9369 124.523 70.9258 124.5 70.9215C124.477 70.9171 124.453 70.9198 124.432 70.9292C122.508 71.7256 120.501 72.2381 118.409 72.4665C117.217 72.5978 115.684 72.5533 114.32 72.6111C114.243 72.6141 114.202 72.6541 114.198 72.7313C114.055 74.9294 113.733 77.0986 113.23 79.2389C113.206 79.3397 113.245 79.3805 113.346 79.3612ZM20.4706 71.3118C22.4329 75.4188 27.0449 78.6738 31.5413 79.2211C31.7089 79.2418 31.7734 79.1699 31.7348 79.0052C31.2543 76.9362 30.9472 74.8434 30.8137 72.7268C30.8115 72.6942 30.7969 72.6636 30.7729 72.6413C30.749 72.619 30.7174 72.6066 30.6847 72.6067C28.3279 72.6082 25.9889 72.422 23.6676 72.0482C22.6464 71.8836 21.6453 71.4498 20.6619 71.1005C20.6331 71.0898 20.6018 71.088 20.572 71.0953C20.5422 71.1026 20.5153 71.1186 20.4947 71.1414C20.4741 71.1641 20.4608 71.1925 20.4565 71.2229C20.4522 71.2533 20.4571 71.2843 20.4706 71.3118Z"
                fill="white"
                stroke="white"
                strokeWidth="2"
                mask="url(#path-2-inside-1_4_408)"
              />
              <path
                d="M17.7895 131.176L14.0874 131.189C14.0234 131.19 13.961 131.209 13.9071 131.243C13.8532 131.277 13.8101 131.326 13.7826 131.383C13.4489 132.077 13.0507 133.089 12.4344 133.483C11.5311 134.059 10.0071 133.316 10.5745 132.135C12.2727 128.584 13.7211 125.465 14.9195 122.777C15.3979 121.705 16.6838 121.887 17.1199 122.909C18.0647 125.129 19.404 128.058 21.1379 131.694C21.6852 132.842 20.9421 133.999 19.6895 133.632C18.7351 133.352 18.3524 132.11 17.9697 131.292C17.9342 131.215 17.8741 131.176 17.7895 131.176ZM15.8562 126.729L15.0263 128.66C15.0173 128.68 15.0134 128.702 15.015 128.724C15.0165 128.746 15.0235 128.767 15.0354 128.786C15.0472 128.805 15.0635 128.821 15.0829 128.832C15.1022 128.843 15.1241 128.85 15.1465 128.851L16.5325 128.913C16.5673 128.915 16.602 128.908 16.6334 128.893C16.6647 128.878 16.6918 128.855 16.7121 128.827C16.7325 128.798 16.7454 128.765 16.7498 128.731C16.7542 128.696 16.7498 128.661 16.7372 128.629L16.0008 126.733C15.9955 126.718 15.9859 126.706 15.9733 126.697C15.9606 126.687 15.9456 126.682 15.93 126.682C15.9144 126.681 15.8991 126.686 15.8859 126.694C15.8727 126.702 15.8624 126.714 15.8562 126.729Z"
                fill="white"
              />
              <path
                d="M29.7746 127.939C29.8562 126.466 29.8851 124.955 29.8614 123.405C29.8369 121.819 32.5801 121.52 32.609 123.238C32.6862 127.766 32.7188 130.844 32.7069 132.471C32.6958 133.937 31.2163 134.035 30.3842 133.065C28.855 131.282 27.3014 129.52 25.7232 127.779C25.6594 127.709 25.6276 127.721 25.6276 127.815C25.6305 129.407 25.6446 130.996 25.6698 132.58C25.6854 133.512 24.4707 133.953 23.7342 133.606C23.0134 133.268 23.0379 132.458 23.0356 131.748C23.0267 129.014 23.0238 126.28 23.0267 123.545C23.029 121.972 24.1503 121.556 25.1893 122.742C26.7007 124.465 28.169 126.217 29.5944 127.997C29.7042 128.135 29.7642 128.116 29.7746 127.939Z"
                fill="white"
              />
              <path
                d="M43.2149 129.443L40.6452 129.428C40.5532 129.426 40.5073 129.38 40.5073 129.29L40.4872 127.659C40.4861 127.56 40.524 127.465 40.5928 127.394C40.6616 127.323 40.7556 127.282 40.8543 127.281L45.1594 127.196C45.6221 127.187 45.8587 127.414 45.8691 127.877C45.8943 129.016 45.9002 130.104 45.8869 131.141C45.8758 132.044 45.3485 132.389 44.572 132.86C41.8177 134.529 37.7974 134.189 35.9597 131.281C34.527 129.014 34.9541 125.71 36.8096 123.794C38.4263 122.123 40.4806 121.669 42.9724 122.433C43.7985 122.688 44.4786 123.177 45.0125 123.899C45.6755 124.798 45.5576 125.705 44.2828 125.863C43.5642 125.95 43.3595 125.854 42.7877 125.361C41.415 124.175 39.6774 124.542 38.5472 125.852C36.7318 127.961 38.3648 131.501 41.2326 131.245C42.4006 131.141 43.4707 131.02 43.3306 129.55C43.3273 129.52 43.3137 129.493 43.2923 129.474C43.271 129.454 43.2434 129.443 43.2149 129.443Z"
                fill="white"
              />
              <path
                d="M61.0221 131.192C62.0277 131.213 63.0311 131.231 64.0323 131.247C64.5025 131.253 64.8607 131.35 65.1069 131.539C65.8656 132.115 65.7143 133.668 64.5218 133.675C62.8131 133.687 61.1052 133.697 59.398 133.706C58.1788 133.712 58.2544 132.876 58.2544 131.873C58.253 129.051 58.2515 126.229 58.25 123.405C58.25 121.658 60.8197 121.489 60.8219 123.403C60.8234 125.957 60.8471 128.51 60.8931 131.063C60.8946 131.146 60.9376 131.189 61.0221 131.192Z"
                fill="white"
              />
              <path
                d="M86.5609 131.192C87.4597 131.213 88.3593 131.221 89.2596 131.216C90.4699 131.21 91.0951 131.314 91.0305 132.694C90.9994 133.37 90.6916 133.712 90.1073 133.719C88.492 133.738 86.8783 133.744 85.2661 133.737C83.9779 133.73 83.8867 133.127 83.8822 131.984C83.8733 129.504 83.8629 127.025 83.8511 124.548C83.8466 123.581 83.6308 122.726 84.6431 122.232C85.4796 121.825 86.4296 122.353 86.4274 123.291C86.4215 125.886 86.4259 128.478 86.4408 131.069C86.4408 131.15 86.4808 131.19 86.5609 131.192Z"
                fill="white"
              />
              <path
                d="M99.6762 131.154C98.7462 131.081 97.0175 130.911 95.8873 131.198C95.8505 131.208 95.8163 131.226 95.7874 131.251C95.7586 131.275 95.7357 131.306 95.7204 131.341C95.2421 132.471 94.8105 134.238 93.1775 133.793C92.0606 133.49 92.292 132.5 92.6858 131.661C93.991 128.895 95.2777 126.121 96.5459 123.34C96.9152 122.531 97.4825 121.765 98.4214 122.204C99.0822 122.513 99.2401 123.218 99.5271 123.892C100.539 126.268 101.624 128.609 102.782 130.916C103.1 131.55 103.556 132.696 103.156 133.274C102.786 133.81 101.877 133.879 101.385 133.581C100.777 133.21 100.235 131.997 99.8586 131.272C99.8201 131.199 99.7592 131.16 99.6762 131.154ZM97.0264 128.591C97.0158 128.623 97.0129 128.657 97.0181 128.69C97.0233 128.723 97.0363 128.755 97.0561 128.782C97.0759 128.809 97.1019 128.831 97.132 128.847C97.162 128.862 97.1952 128.869 97.2289 128.869L98.3991 128.849C98.4326 128.848 98.4653 128.839 98.4947 128.823C98.524 128.807 98.5492 128.785 98.5681 128.757C98.587 128.73 98.599 128.698 98.6033 128.665C98.6076 128.632 98.604 128.598 98.5927 128.566L97.9831 126.916C97.9678 126.875 97.9402 126.84 97.9041 126.815C97.868 126.791 97.8252 126.778 97.7816 126.778C97.738 126.779 97.6956 126.793 97.6604 126.819C97.6252 126.845 97.5988 126.881 97.5848 126.922L97.0264 128.591Z"
                fill="white"
              />
              <path
                d="M108.015 125.43C105.04 128.391 109.361 133.321 112.197 130.226C113.025 129.323 114.331 130.253 114.482 131.21C114.493 131.284 114.481 131.355 114.447 131.423C113.041 134.155 109.087 134.416 106.905 132.929C101.131 128.991 105.574 119.667 112.38 122.602C113.232 122.969 114.436 123.823 114.36 124.864C114.304 125.641 113.604 126.159 112.858 126.09C111.964 126.01 111.623 125.029 110.745 124.8C109.635 124.512 108.725 124.722 108.015 125.43Z"
                fill="white"
              />
              <path
                d="M129.722 131.063C130.365 131.348 131.593 131.201 131.783 130.351C132.018 129.285 129.535 128.967 128.819 128.613C127.371 127.899 126.434 126.248 126.879 124.662C127.72 121.672 131.998 121.193 133.736 123.536C134.517 124.591 133.901 125.935 132.49 125.574C131.829 125.405 131.527 124.673 130.83 124.613C130.207 124.56 129.745 124.801 129.444 125.338C129.425 125.372 129.414 125.41 129.412 125.448C129.41 125.487 129.417 125.526 129.433 125.561C129.762 126.315 131.32 126.715 132.038 127.069C133.576 127.826 134.641 128.796 134.434 130.573C134.041 133.933 129.017 134.918 127.179 132.242C126.601 131.399 126.692 130.544 127.727 130.164C128.741 129.79 128.979 130.733 129.722 131.063Z"
                fill="white"
              />
              <path
                d="M51.0304 129.201V130.907C51.0304 130.993 51.0646 131.076 51.1254 131.137C51.1863 131.199 51.2689 131.233 51.3553 131.234C52.3453 131.239 54.6613 131.036 55.4378 131.521C56.3389 132.086 56.0541 133.737 54.7014 133.746C52.9868 133.755 51.2722 133.756 49.5576 133.75C48.6454 133.748 48.4341 132.92 48.4252 132.111C48.3748 127.792 48.3681 124.87 48.4052 123.347C48.4319 122.279 49.3285 122.155 50.2495 122.159C51.6734 122.165 53.0988 122.169 54.5256 122.17C55.4 122.172 55.8405 122.459 55.8494 123.358C55.8583 124.226 55.4304 124.652 54.5657 124.637C53.5096 124.62 52.4143 124.616 51.2796 124.626C51.2049 124.628 51.1336 124.658 51.0811 124.711C51.0287 124.764 50.9993 124.835 50.9993 124.909L51.0015 126.359C51.0018 126.393 51.0087 126.426 51.0219 126.457C51.035 126.488 51.0542 126.516 51.0782 126.539C51.1022 126.562 51.1305 126.581 51.1617 126.593C51.1928 126.605 51.2261 126.611 51.2596 126.611C52.3587 126.598 54.5256 126.226 54.8171 127.681C54.915 128.165 54.7882 128.545 54.4366 128.822C53.8515 129.285 51.9159 129.072 51.1439 129.085C51.0683 129.086 51.0304 129.125 51.0304 129.201Z"
                fill="white"
              />
              <path
                d="M75.8594 130.013C75.8505 130.815 75.8379 131.62 75.8216 132.427C75.7837 134.429 73.223 134.075 73.2141 132.246C73.1992 129.311 73.1926 126.374 73.194 123.436C73.1963 122.635 73.5433 122.135 74.3621 122.126C75.5991 122.114 76.8339 122.121 78.0664 122.148C81.5171 122.221 83.1523 126.569 80.4981 128.836C79.3168 129.846 77.5124 129.964 76.0107 129.872C75.9113 129.865 75.8609 129.912 75.8594 130.013ZM75.8149 124.869L75.806 127.294C75.8057 127.319 75.8104 127.344 75.8199 127.368C75.8294 127.391 75.8434 127.413 75.8612 127.431C75.879 127.449 75.9002 127.463 75.9236 127.473C75.9469 127.482 75.972 127.487 75.9973 127.487L77.6348 127.492C78.0144 127.493 78.379 127.35 78.6485 127.095C78.918 126.839 79.0703 126.491 79.072 126.128V126.061C79.0729 125.881 79.0366 125.703 78.9653 125.536C78.8939 125.369 78.7889 125.218 78.6563 125.09C78.5236 124.962 78.3659 124.86 78.1921 124.79C78.0184 124.721 77.832 124.685 77.6437 124.684L76.0062 124.68C75.9559 124.68 75.9075 124.7 75.8717 124.735C75.8359 124.77 75.8155 124.818 75.8149 124.869Z"
                fill="white"
              />
              <path
                d="M119.588 124.729L119.682 126.531C119.686 126.609 119.728 126.649 119.806 126.649C120.718 126.642 122.374 126.437 123.079 126.933C123.811 127.445 123.666 129.031 122.534 129.043C121.601 129.051 120.67 129.069 119.74 129.096C119.673 129.097 119.639 129.132 119.639 129.198L119.646 131.105C119.646 131.142 119.661 131.178 119.687 131.204C119.713 131.23 119.749 131.245 119.786 131.245L123.528 131.247C123.592 131.247 123.65 131.265 123.702 131.301C124.552 131.884 124.825 133.608 123.397 133.646C120.816 133.712 118.97 133.713 117.86 133.648C117.125 133.603 116.952 132.923 116.952 132.257C116.95 129.324 116.958 126.391 116.974 123.461C116.981 122.381 117.604 122.186 118.58 122.177C120.175 122.163 121.77 122.151 123.366 122.139C125.037 122.13 124.983 124.709 122.865 124.613C122.038 124.576 120.98 124.577 119.693 124.615C119.679 124.616 119.664 124.619 119.651 124.625C119.638 124.631 119.627 124.64 119.617 124.65C119.607 124.661 119.6 124.673 119.595 124.687C119.59 124.7 119.588 124.714 119.588 124.729Z"
                fill="white"
              />
              <path
                d="M85.5152 142.997C85.5345 143.763 85.5419 144.964 85.5374 146.599C85.533 147.593 84.2292 147.869 83.6664 147.297C83.475 147.104 83.3794 146.797 83.3794 146.374C83.3809 144.137 83.3682 141.904 83.3415 139.673C83.3215 138.169 84.6164 137.984 85.4106 139.11C86.348 140.437 87.3596 141.706 88.4453 142.917C88.5105 142.989 88.5446 142.977 88.5476 142.879C88.5788 141.68 88.3007 139.453 88.8947 138.763C89.3841 138.193 90.234 138.276 90.6056 138.921C90.7124 139.105 90.7672 139.379 90.7702 139.744C90.7925 141.918 90.8184 144.091 90.8481 146.263C90.8585 146.986 90.5314 147.44 89.8669 147.622C89.7952 147.642 89.7186 147.636 89.6511 147.604C88.9948 147.295 88.739 146.859 88.3007 146.338C87.3707 145.235 86.4622 144.114 85.5753 142.977C85.5323 142.923 85.5122 142.93 85.5152 142.997Z"
                fill="white"
              />
              <path
                d="M63.9545 144.151C63.7654 148.112 58.3947 148.877 57.0509 145.395C56.4969 143.962 56.7083 141.579 56.7394 139.837C56.7483 139.327 56.8485 138.963 57.0398 138.745C57.5515 138.155 58.6216 138.449 58.8664 139.217C58.9213 139.386 58.948 139.633 58.9465 139.96C58.9405 141.283 58.9398 142.606 58.9442 143.929C58.9487 145.733 61.663 146.234 61.7141 144.089C61.7483 142.707 61.7601 141.32 61.7497 139.929C61.7431 138.988 62.4661 137.873 63.5185 138.669C63.8077 138.887 63.9568 139.12 63.9657 139.366C64.0265 141.128 64.0228 142.723 63.9545 144.151Z"
                fill="white"
              />
              <path
                d="M95.2242 141.321C95.3547 141.479 95.5586 141.608 95.836 141.708C96.8127 142.062 98.2878 142.394 98.8707 143.333C99.7139 144.696 99.0598 146.352 97.7271 147.073C96.321 147.833 93.3976 147.618 93.1707 145.611C93.1173 145.136 93.2879 144.809 93.6824 144.63C94.5901 144.22 95.0595 145.217 95.7759 145.404C96.1942 145.515 97.0952 145.482 97.1642 144.926C97.32 143.653 92.5811 144.08 93.3576 140.638C93.9115 138.178 97.1865 137.933 98.686 139.628C99.3779 140.409 98.6192 141.341 97.7071 141.221C97.113 141.143 96.8995 140.601 96.3499 140.529C95.8516 140.466 95.4704 140.65 95.2064 141.083C95.1843 141.12 95.1741 141.163 95.1773 141.206C95.1805 141.248 95.1969 141.289 95.2242 141.321Z"
                fill="white"
              />
              <path
                d="M68.849 145.368C69.8087 145.37 70.7668 145.373 71.7235 145.377C72.7847 145.384 72.7358 146.859 72.1484 147.266C71.9289 147.42 71.5411 147.497 70.9849 147.495C70.1617 147.493 67.6232 147.671 67.0225 147.239C66.7303 147.03 66.5797 146.761 66.5708 146.432C66.5293 144.845 66.5152 142.62 66.5286 139.757C66.533 138.892 66.9869 138.563 67.839 138.574C68.9959 138.589 70.1535 138.585 71.3119 138.563C71.6916 138.555 71.9697 138.641 72.1462 138.821C72.6557 139.341 72.5467 140.56 71.5767 140.578C70.66 140.595 69.7434 140.594 68.8268 140.576C68.7348 140.575 68.6881 140.62 68.6866 140.712L68.6711 141.802C68.6696 141.878 68.7066 141.916 68.7823 141.918C69.5165 141.934 70.2484 141.941 70.9782 141.938C71.7524 141.935 72.0884 142.346 71.986 143.17C71.9148 143.746 71.6946 143.929 71.1028 143.942C70.3612 143.961 69.6196 143.964 68.878 143.951C68.8597 143.951 68.8415 143.954 68.8245 143.961C68.8075 143.968 68.792 143.978 68.779 143.991C68.7659 144.004 68.7556 144.02 68.7485 144.037C68.7414 144.054 68.7378 144.073 68.7378 144.091L68.7422 145.259C68.7422 145.332 68.7778 145.368 68.849 145.368Z"
                fill="white"
              />
              <path
                d="M77.1987 140.71V141.818C77.1987 141.904 77.2417 141.946 77.3278 141.944C78.1065 141.932 78.8785 141.939 79.6438 141.964C81.081 142.011 80.9943 143.911 79.5904 143.956C78.834 143.979 78.0753 143.99 77.3144 143.987C77.2388 143.987 77.2002 144.025 77.1987 144.1L77.1965 144.986C77.1965 145.087 77.2364 145.184 77.3077 145.256C77.3789 145.328 77.4756 145.369 77.5769 145.371C78.283 145.378 78.9919 145.38 79.7039 145.377C80.5226 145.373 81.2234 145.555 81.1945 146.494C81.1723 147.182 80.7859 147.529 80.0354 147.535C78.7183 147.549 77.4494 147.552 76.2287 147.544C75.9472 147.542 75.6777 147.43 75.4787 147.231C75.2796 147.032 75.167 146.762 75.1652 146.481L75.1296 139.546C75.1291 139.413 75.1549 139.28 75.2057 139.157C75.2565 139.034 75.3312 138.922 75.4255 138.827C75.5198 138.733 75.6319 138.658 75.7552 138.607C75.8786 138.557 76.0108 138.531 76.1442 138.531C77.528 138.539 78.9193 138.54 80.3179 138.534C81.0833 138.529 81.328 139.915 80.6984 140.369C80.1043 140.794 78.0731 140.609 77.31 140.601C77.2358 140.599 77.1987 140.635 77.1987 140.71Z"
                fill="white"
              />
              <path
                d="M51.4687 147.555C49.7171 147.864 48.2917 147.465 47.1926 146.358C43.3704 142.512 48.334 136.231 52.9482 139.49C55.1508 141.045 55.3533 144.062 53.7247 146.074C53.7005 146.103 53.6828 146.138 53.6727 146.175C53.6626 146.212 53.6602 146.251 53.6659 146.289C53.6715 146.327 53.685 146.364 53.7055 146.396C53.7259 146.429 53.7529 146.457 53.7848 146.478L55.2309 147.462C55.2722 147.49 55.3035 147.53 55.3203 147.577C55.3371 147.624 55.3385 147.674 55.3244 147.722C55.1345 148.347 54.7874 148.861 54.2831 149.266C54.2016 149.331 54.1148 149.34 54.0228 149.291C53.1641 148.823 52.3742 148.263 51.6534 147.609C51.6 147.56 51.5385 147.542 51.4687 147.555ZM49.8513 144.712C49.743 144.188 49.9907 143.849 50.5944 143.693C50.6923 143.668 50.779 143.689 50.8547 143.755L51.7646 144.545C51.7885 144.566 51.8182 144.578 51.8495 144.58C51.8809 144.582 51.912 144.573 51.9382 144.556C52.2497 144.35 52.4306 144.027 52.481 143.588C52.6219 142.397 52.1851 141.562 51.1706 141.083C49.2662 140.182 47.4018 142.205 48.2472 144.071C48.5898 144.828 49.2224 145.293 50.145 145.468C50.274 145.494 50.3029 145.451 50.2317 145.339C50.0627 145.084 49.9114 145.01 49.8513 144.712Z"
                fill="white"
              />
            </svg>