<svg
            xmlns="http://www.w3.org/2000/svg"
            width="82"
            height="82"
            viewBox="0 0 82 82"
            fill="none"
            id="scroll-down"
          >
            <path
              d="M28.5 44.125L41 56.625M41 56.625L53.5 44.125M41 56.625L41 25.375M41 78.5C36.0754 78.5 31.1991 77.53 26.6494 75.6455C22.0997 73.7609 17.9657 70.9987 14.4835 67.5165C11.0013 64.0343 8.23907 59.9003 6.35452 55.3506C4.46997 50.8009 3.50001 45.9246 3.50001 41C3.50001 36.0754 4.46997 31.1991 6.35452 26.6494C8.23908 22.0997 11.0013 17.9657 14.4835 14.4835C17.9657 11.0013 22.0997 8.23907 26.6494 6.35452C31.1991 4.46996 36.0754 3.5 41 3.5C50.9456 3.5 60.4839 7.45088 67.5165 14.4835C74.5491 21.5161 78.5 31.0544 78.5 41C78.5 50.9456 74.5491 60.4839 67.5165 67.5165C60.4839 74.5491 50.9456 78.5 41 78.5Z"
              stroke="white"
              stroke-width="6"
              stroke-linecap="round"
              stroke-linejoin="round"
            />
          </svg>